<?xml version="1.0" encoding="UTF-8"?>
<svg id="Calque_2" data-name="Calque 2" xmlns="http://www.w3.org/2000/svg" viewBox="0 0 74.24 28.5">
  <defs>
    <style>
      .cls-1 {
        fill: #39383a;
      }

      .cls-2 {
        fill: #d20f3b;
      }
    </style>
  </defs>
  <g id="Calque_1-2" data-name="Calque 1">
    <g>
      <polygon class="cls-1" points="3.02 28.42 0 28.42 0 24.1 .68 24.1 .68 27.86 3.02 27.86 3.02 28.42"/>
      <polygon class="cls-1" points="4.56 25.91 6.68 25.91 6.68 26.47 4.56 26.47 4.56 27.86 7.05 27.86 7.05 28.42 3.88 28.42 3.88 24.1 7.05 24.1 7.05 24.66 4.56 24.66 4.56 25.91"/>
      <polygon class="cls-1" points="9.87 24.66 9.87 28.42 9.19 28.42 9.19 24.66 7.81 24.66 7.81 24.1 11.25 24.1 11.25 24.66 9.87 24.66"/>
      <polygon class="cls-1" points="12.14 23.79 11.87 25.18 12.2 25.24 12.77 23.79 12.14 23.79"/>
      <g>
        <path class="cls-1" d="m16.41,24.84c-.4-.16-.83-.24-1.27-.24-.71,0-1.08.21-1.08.62,0,1.05,2.64.38,2.64,1.99,0,.83-.7,1.3-1.92,1.3-.49,0-.98-.09-1.43-.28l.11-.53c.41.16.85.24,1.29.24.82,0,1.25-.24,1.25-.67,0-1.06-2.63-.38-2.63-2,0-.8.63-1.24,1.77-1.24.48,0,.95.09,1.39.28l-.1.54Z"/>
        <path class="cls-1" d="m22.91,28.15c-.47.24-.99.36-1.52.35-1.51,0-2-.93-2-2.22s.5-2.27,1.98-2.27c.48,0,.96.1,1.4.29l-.11.54c-.38-.16-.78-.24-1.18-.24-.97,0-1.39.58-1.39,1.69s.44,1.62,1.39,1.62c.26,0,.51-.04.76-.12v-1.46h.67v1.81Z"/>
        <path class="cls-1" d="m24.73,26.85v1.57h-.68v-4.31h1.78c1.04,0,1.58.48,1.58,1.38,0,.71-.34,1.16-1,1.31l1.08,1.63h-.79l-1.01-1.57h-.96Zm1-.56c.66,0,.98-.26.98-.82s-.32-.81-.98-.81h-1v1.63h1Z"/>
        <path class="cls-1" d="m32.05,26.24c0,1.07-.3,2.27-1.93,2.27s-1.88-1.14-1.88-2.22.32-2.27,1.94-2.27,1.87,1.13,1.87,2.22m-1.9,1.69c.83,0,1.19-.5,1.19-1.73,0-1.11-.34-1.59-1.19-1.59s-1.21.49-1.21,1.7c0,1.12.34,1.61,1.21,1.61"/>
      </g>
      <polygon class="cls-1" points="37.07 28.42 36.2 28.42 35.33 24.8 34.45 28.42 33.57 28.42 32.64 24.1 33.33 24.1 34.06 27.7 34.89 24.1 35.75 24.1 36.58 27.7 37.31 24.1 38 24.1 37.07 28.42"/>
      <polygon class="cls-1" points="42.56 24.66 42.56 28.42 41.88 28.42 41.88 24.66 40.5 24.66 40.5 24.1 43.94 24.1 43.94 24.66 42.56 24.66"/>
      <g>
        <path class="cls-1" d="m48.32,26.24c0,1.07-.3,2.27-1.93,2.27s-1.88-1.14-1.88-2.22.32-2.27,1.94-2.27,1.87,1.13,1.87,2.22m-1.9,1.68c.83,0,1.19-.5,1.19-1.73,0-1.11-.34-1.59-1.19-1.59s-1.21.49-1.21,1.7c0,1.12.34,1.61,1.21,1.61"/>
        <path class="cls-1" d="m52.65,28.15c-.47.24-.99.36-1.52.35-1.51,0-2-.93-2-2.22s.5-2.27,1.98-2.27c.48,0,.96.1,1.4.29l-.11.54c-.38-.16-.78-.24-1.18-.24-.97,0-1.39.58-1.39,1.69s.43,1.62,1.38,1.62c.26,0,.51-.04.76-.12v-1.46h.68v1.81Z"/>
      </g>
      <polygon class="cls-1" points="54.45 25.91 56.58 25.91 56.58 26.47 54.45 26.47 54.45 27.86 56.95 27.86 56.95 28.42 53.77 28.42 53.77 24.1 56.95 24.1 56.95 24.66 54.45 24.66 54.45 25.91"/>
      <polygon class="cls-1" points="59.77 24.66 59.77 28.42 59.09 28.42 59.09 24.66 57.7 24.66 57.7 24.1 61.15 24.1 61.15 24.66 59.77 24.66"/>
      <polygon class="cls-1" points="65.46 28.42 64.78 28.42 64.78 26.48 62.71 26.48 62.71 28.42 62.03 28.42 62.03 24.1 62.71 24.1 62.71 25.92 64.78 25.92 64.78 24.1 65.46 24.1 65.46 28.42"/>
      <polygon class="cls-1" points="67.37 25.91 69.49 25.91 69.49 26.47 67.37 26.47 67.37 27.86 69.86 27.86 69.86 28.42 66.69 28.42 66.69 24.1 69.86 24.1 69.86 24.66 67.37 24.66 67.37 25.91"/>
      <g>
        <path class="cls-1" d="m71.48,26.85v1.57h-.68v-4.31h1.78c1.05,0,1.58.48,1.58,1.38,0,.71-.34,1.16-1,1.31l1.08,1.63h-.79l-1.01-1.57h-.96Zm1.01-.56c.66,0,.98-.26.98-.82s-.32-.81-.98-.81h-1.01v1.63h1.01Z"/>
        <path class="cls-2" d="m1.62,14.94l-1.34,3.96h4.34s.71-2.19,1.55-4.84l-4.55.88Z"/>
        <path class="cls-2" d="m7.31,10.49c.84-2.66,1.57-5.03,1.65-5.45h.06c.07.43.74,2.54,1.53,4.99l4.38-.62L11.62,0h-4.96l-3.75,11.12,4.4-.63Z"/>
        <path class="cls-2" d="m11.53,13.04c.95,2.89,1.83,5.52,1.93,5.84l3.04-4.97-.6-1.71-4.38.84Z"/>
      </g>
      <polygon class="cls-2" points="27.79 7.58 32.25 0 27.29 0 23.9 6.13 20.46 0 15.42 0 20.59 8.61 27.79 7.58"/>
      <polygon class="cls-2" points="19.63 11.49 15.08 18.9 20.23 18.9 23.82 12.52 27.4 18.9 32.89 18.9 27.25 10.02 19.63 11.49"/>
      <polygon class="cls-2" points="38.12 6.12 38.12 0 33.75 0 33.75 6.74 38.12 6.12"/>
      <polygon class="cls-2" points="33.75 8.78 33.75 18.9 38.12 18.9 38.12 7.94 33.75 8.78"/>
      <path class="cls-2" d="m42.83,7.03l-4.01,11.87h4.34s3.01-9.3,4.02-12.7l-4.35.83Z"/>
      <polygon class="cls-2" points="51.64 4.2 50.17 0 45.21 0 43.39 5.37 51.64 4.2"/>
      <path class="cls-2" d="m47.84,6.07c.99,3.3,4.17,12.84,4.17,12.84h4.79l-4.79-13.63-4.17.79Z"/>
      <polygon class="cls-2" points="73.57 1.09 73.57 0 69.37 0 69.37 1.69 73.57 1.09"/>
      <path class="cls-2" d="m69.37,1.95v4.28c0,1.79.05,4.28.2,5.91-.67-1.46-1.46-3.11-2.3-4.65l-2.57-4.64-7.18,1.37v14.69h4.2v-7.2c0-1.79-.06-3.7-.14-5.1.58,1.41,1.24,2.8,1.96,4.15l4.45,8.15h5.57V1.14l-4.2.81Z"/>
      <polygon class="cls-2" points="64.45 2.38 63.13 0 57.53 0 57.53 3.37 64.45 2.38"/>
    </g>
  </g>
</svg>